HIERARCHY
ROOT Hips
{
 OFFSET 0.000000 0.000000 0.000000
 CHANNELS 6 Xposition Yposition Zposition Yrotation Xrotation Zrotation
 JOINT Chest
 {
  OFFSET 0.000000 9.585900 0.002600
  CHANNELS 3 Yrotation Xrotation Zrotation
  JOINT Chest2
  {
   OFFSET 0.000000 9.601200 -0.005300
   CHANNELS 3 Yrotation Xrotation Zrotation
   JOINT Chest3
   {
    OFFSET 0.000000 9.561800 0.000000
    CHANNELS 3 Yrotation Xrotation Zrotation
    JOINT Chest4
    {
     OFFSET 0.000000 9.552100 0.000000
     CHANNELS 3 Yrotation Xrotation Zrotation
     JOINT Neck
     {
      OFFSET 0.000000 14.453000 0.000000
      CHANNELS 3 Yrotation Xrotation Zrotation
      JOINT Head
      {
       OFFSET 0.000000 8.936500 -0.011300
       CHANNELS 3 Yrotation Xrotation Zrotation
       End Site
       {
        OFFSET 0.000000 17.073600 -0.006000
       }
      }
     }
     JOINT RightCollar
     {
      OFFSET -2.921100 9.558500 0.000000
      CHANNELS 3 Yrotation Xrotation Zrotation
      JOINT RightShoulder
      {
       OFFSET -13.519700 0.000000 0.000000
       CHANNELS 3 Yrotation Xrotation Zrotation
       JOINT RightElbow
       {
        OFFSET 0.000000 -29.696600 0.000000
        CHANNELS 3 Yrotation Xrotation Zrotation
        JOINT RightWrist
        {
         OFFSET 0.000000 -24.004700 0.000000
         CHANNELS 3 Yrotation Xrotation Zrotation
         End Site
         {
          OFFSET 0.000000 -17.728500 0.000000
         }
        }
       }
      }
     }
     JOINT LeftCollar
     {
      OFFSET 2.921100 9.558500 0.000000
      CHANNELS 3 Yrotation Xrotation Zrotation
      JOINT LeftShoulder
      {
       OFFSET 13.519700 0.000000 0.000000
       CHANNELS 3 Yrotation Xrotation Zrotation
       JOINT LeftElbow
       {
        OFFSET 0.000000 -29.696600 0.000000
        CHANNELS 3 Yrotation Xrotation Zrotation
        JOINT LeftWrist
        {
         OFFSET 0.000000 -24.004700 0.000000
         CHANNELS 3 Yrotation Xrotation Zrotation
         End Site
         {
          OFFSET 0.000000 -17.728500 0.000000
         }
        }
       }
      }
     }
    }
   }
  }
 }
 JOINT RightHip
 {
  OFFSET -7.771700 -0.012900 -0.001300
  CHANNELS 3 Yrotation Xrotation Zrotation
  JOINT RightKnee
  {
   OFFSET 0.000000 -40.869800 0.001200
   CHANNELS 3 Yrotation Xrotation Zrotation
   JOINT RightAnkle
   {
    OFFSET 0.000000 -39.717900 0.002100
    CHANNELS 3 Yrotation Xrotation Zrotation
    JOINT RightToe
    {
     OFFSET 0.000000 -4.965400 11.033500
     CHANNELS 3 Yrotation Xrotation Zrotation
     End Site
     {
      OFFSET 0.000000 -1.423100 5.872300
     }
    }
   }
  }
 }
 JOINT LeftHip
 {
  OFFSET 7.771700 -0.012900 -0.001300
  CHANNELS 3 Yrotation Xrotation Zrotation
  JOINT LeftKnee
  {
   OFFSET 0.000000 -40.869800 0.001200
   CHANNELS 3 Yrotation Xrotation Zrotation
   JOINT LeftAnkle
   {
    OFFSET 0.000000 -39.717900 0.002100
    CHANNELS 3 Yrotation Xrotation Zrotation
    JOINT LeftToe
    {
     OFFSET 0.000000 -4.965400 11.033500
     CHANNELS 3 Yrotation Xrotation Zrotation
     End Site
     {
      OFFSET 0.000000 -1.423100 5.872300
     }
    }
   }
  }
 }
}
MOTION
Frames: 6
Frame Time: 0.008333
-140.852548 49.169892 18.890677 176.510444 -31.362885 -3.297206 0.882631 19.447146 2.515294 0.059008 2.349135 0.243909 0.122947 3.893090 0.413865 0.691567 16.802717 1.860283 3.539150 16.687316 -2.306802 7.393253 -4.532938 -5.490331 -1.524273 -3.965859 -3.243560 5.060005 -5.656226 -12.658306 -38.234038 -43.362027 91.923516 2.675616 7.158324 -16.780676 -0.703088 -3.306341 2.397210 -7.258967 -2.116608 12.967367 67.053657 -64.883201 -107.498616 5.043987 10.641617 11.358340 -0.680528 -53.647810 -9.245476 -146.289953 81.997618 -134.439774 -30.249314 -1.530860 -2.754664 -0.178850 -11.818710 1.413662 -13.312241 -55.161173 18.429899 -73.193552 65.330151 -78.369572 30.712248 7.020258 16.047126 0.047527 -0.301009 -0.007091
-140.855053 49.170766 18.891717 176.508418 -31.369130 -3.289552 0.878956 19.448609 2.505101 0.047526 2.334392 0.239175 0.122895 3.894000 0.411712 0.676084 16.793965 1.854113 3.563132 16.708613 -2.302181 7.376199 -4.548698 -5.493241 -1.533237 -3.974419 -3.244326 5.037452 -5.637646 -12.668763 -38.258458 -43.395654 91.936797 2.657021 7.145218 -16.759672 -0.712469 -3.308075 2.411149 -7.271606 -2.126392 12.961635 67.045821 -64.890452 -107.495930 5.064369 10.646031 11.383994 -0.661061 -53.643848 -9.251768 -146.290673 82.009136 -134.458887 -30.243982 -1.507378 -2.732778 -0.197026 -11.821285 1.405897 -13.332111 -55.153117 18.421103 -73.189329 65.343075 -78.364925 30.715223 7.020970 16.031422 0.031354 -0.312048 0.001181
-140.855060 49.172458 18.891247 176.501057 -31.385190 -3.297772 0.875516 19.444572 2.506568 0.048919 2.339958 0.241482 0.120325 3.888370 0.408729 0.682743 16.804162 1.856225 3.543191 16.685190 -2.308951 7.328674 -4.620215 -5.508870 -1.559281 -3.999633 -3.252280 5.007785 -5.619572 -12.667792 -38.218392 -43.391767 91.957545 2.679737 7.092632 -16.788676 -0.772445 -3.348708 2.426243 -7.249337 -2.115914 12.955944 67.031389 -64.891898 -107.492745 5.044466 10.651784 11.367648 -0.637269 -53.627412 -9.236600 -146.201778 82.004673 -134.363606 -30.250492 -1.498484 -2.725203 -0.167266 -11.818949 1.401354 -13.369137 -55.131359 18.439430 -73.194803 65.353435 -78.364983 30.720505 7.020936 16.010184 0.031299 -0.313077 0.001192
-140.856198 49.174398 18.889361 176.491485 -31.407195 -3.301867 0.870005 19.448245 2.505803 0.061228 2.353620 0.244871 0.106156 3.873117 0.404557 0.665988 16.792326 1.847712 3.517813 16.643419 -2.321795 7.341023 -4.629955 -5.517105 -1.565635 -4.004036 -3.260612 4.989197 -5.598630 -12.660142 -38.218178 -43.414340 91.972315 2.679127 7.068607 -16.782731 -0.806503 -3.365956 2.438334 -7.223436 -2.099794 12.957923 67.026682 -64.890380 -107.503165 5.024036 10.662375 11.360279 -0.606990 -53.602951 -9.232273 -146.141198 82.003623 -134.293408 -30.253965 -1.493840 -2.718108 -0.162592 -11.814572 1.400260 -13.395502 -55.104893 18.448000 -73.201703 65.363650 -78.366944 30.724462 7.023367 15.995933 0.034028 -0.316728 -0.004263
-140.854192 49.175691 18.887903 176.478658 -31.424132 -3.327059 0.864795 19.429942 2.520736 0.071516 2.369857 0.248351 0.096377 3.860939 0.400778 0.681882 16.813438 1.851220 3.514973 16.634082 -2.324367 7.325759 -4.681316 -5.531252 -1.604353 -4.030320 -3.265417 4.928831 -5.591549 -12.642085 -38.184941 -43.443087 91.972612 2.663322 7.092792 -16.736720 -0.845197 -3.394414 2.445352 -7.209960 -2.087270 12.962802 67.027015 -64.892268 -107.520203 5.039277 10.667630 11.390598 -0.581334 -53.582364 -9.187652 -146.007555 81.995399 -134.151324 -30.252659 -1.487714 -2.707364 -0.172405 -11.801352 1.408972 -13.443299 -55.080812 18.493148 -73.257808 65.353945 -78.395148 30.703035 7.013318 15.956756 0.065659 -0.304253 -0.005084
-140.855904 49.176689 18.884801 176.474112 -31.444556 -3.336718 0.870121 19.444542 2.531143 0.052470 2.341266 0.241951 0.110646 3.883565 0.404588 0.664946 16.801096 1.844199 3.526684 16.637963 -2.325291 7.321424 -4.715364 -5.541955 -1.655704 -4.078472 -3.279177 4.947954 -5.536349 -12.606877 -38.182121 -43.466451 91.967503 2.655643 7.105594 -16.708818 -0.866441 -3.407155 2.451118 -7.227776 -2.095304 12.973712 66.985214 -64.867838 -107.441637 5.036347 10.673980 11.393236 -0.575634 -53.561231 -9.162595 -146.083391 82.010700 -134.240823 -30.259129 -1.481975 -2.694714 -0.162525 -11.792324 1.409359 -13.454770 -55.058779 18.503280 -73.292193 65.351949 -78.416011 30.684786 7.006068 15.929370 0.078302 -0.301648 0.006846
